<svg version="1.1" xmlns="http://www.w3.org/2000/svg" viewBox="0 0 1535.515625 775.5156250000001" width="1535.515625" height="775.5156250000001" filter="invert(93%) hue-rotate(180deg)">
  <!-- svg-source:excalidraw -->
  
  <defs>
    <style class="style-fonts">
      @font-face {
        font-family: "Virgil";
        src: url("https://excalidraw.com/Virgil.woff2");
      }
      @font-face {
        font-family: "Cascadia";
        src: url("https://excalidraw.com/Cascadia.woff2");
      }
      @font-face {
        font-family: "Assistant";
        src: url("https://excalidraw.com/Assistant-Regular.woff2");
      }
    </style>
    
  </defs>
  <g stroke-linecap="round" transform="translate(738.015625 10) rotate(0 33.4921875 22)"><path d="M11 0 C26.41 0, 41.83 0, 55.98 0 M11 0 C26.2 0, 41.4 0, 55.98 0 M55.98 0 C63.32 0, 66.98 3.67, 66.98 11 M55.98 0 C63.32 0, 66.98 3.67, 66.98 11 M66.98 11 C66.98 17.38, 66.98 23.75, 66.98 33 M66.98 11 C66.98 19.09, 66.98 27.18, 66.98 33 M66.98 33 C66.98 40.33, 63.32 44, 55.98 44 M66.98 33 C66.98 40.33, 63.32 44, 55.98 44 M55.98 44 C39.3 44, 22.61 44, 11 44 M55.98 44 C43.43 44, 30.88 44, 11 44 M11 44 C3.67 44, 0 40.33, 0 33 M11 44 C3.67 44, 0 40.33, 0 33 M0 33 C0 27.95, 0 22.89, 0 11 M0 33 C0 27.69, 0 22.39, 0 11 M0 11 C0 3.67, 3.67 0, 11 0 M0 11 C0 3.67, 3.67 0, 11 0" stroke="#1971c2" stroke-width="2" fill="none"></path></g><g stroke-linecap="round" transform="translate(727.53125 104) rotate(0 43.9765625 22)"><path d="M11 0 C34.77 0, 58.54 0, 76.95 0 M11 0 C27.12 0, 43.24 0, 76.95 0 M76.95 0 C84.29 0, 87.95 3.67, 87.95 11 M76.95 0 C84.29 0, 87.95 3.67, 87.95 11 M87.95 11 C87.95 18.04, 87.95 25.08, 87.95 33 M87.95 11 C87.95 19.31, 87.95 27.63, 87.95 33 M87.95 33 C87.95 40.33, 84.29 44, 76.95 44 M87.95 33 C87.95 40.33, 84.29 44, 76.95 44 M76.95 44 C54.33 44, 31.7 44, 11 44 M76.95 44 C62.33 44, 47.7 44, 11 44 M11 44 C3.67 44, 0 40.33, 0 33 M11 44 C3.67 44, 0 40.33, 0 33 M0 33 C0 28.36, 0 23.73, 0 11 M0 33 C0 26.8, 0 20.6, 0 11 M0 11 C0 3.67, 3.67 0, 11 0 M0 11 C0 3.67, 3.67 0, 11 0" stroke="#1971c2" stroke-width="2" fill="none"></path></g><g stroke-linecap="round" transform="translate(10 198) rotate(0 165.7734375 22)"><path d="M11 0 C100.28 0, 189.56 0, 320.55 0 M11 0 C111.22 0, 211.43 0, 320.55 0 M320.55 0 C327.88 0, 331.55 3.67, 331.55 11 M320.55 0 C327.88 0, 331.55 3.67, 331.55 11 M331.55 11 C331.55 19.7, 331.55 28.39, 331.55 33 M331.55 11 C331.55 16.68, 331.55 22.36, 331.55 33 M331.55 33 C331.55 40.33, 327.88 44, 320.55 44 M331.55 33 C331.55 40.33, 327.88 44, 320.55 44 M320.55 44 C213.61 44, 106.67 44, 11 44 M320.55 44 C226.93 44, 133.32 44, 11 44 M11 44 C3.67 44, 0 40.33, 0 33 M11 44 C3.67 44, 0 40.33, 0 33 M0 33 C0 27.4, 0 21.8, 0 11 M0 33 C0 25.28, 0 17.56, 0 11 M0 11 C0 3.67, 3.67 0, 11 0 M0 11 C0 3.67, 3.67 0, 11 0" stroke="#e03131" stroke-width="2" fill="none"></path></g><g stroke-linecap="round" transform="translate(391.546875 198) rotate(0 186.2421875 22)"><path d="M11 0 C88.41 0, 165.82 0, 361.48 0 M11 0 C97.85 0, 184.7 0, 361.48 0 M361.48 0 C368.82 0, 372.48 3.67, 372.48 11 M361.48 0 C368.82 0, 372.48 3.67, 372.48 11 M372.48 11 C372.48 17.01, 372.48 23.03, 372.48 33 M372.48 11 C372.48 17.12, 372.48 23.25, 372.48 33 M372.48 33 C372.48 40.33, 368.82 44, 361.48 44 M372.48 33 C372.48 40.33, 368.82 44, 361.48 44 M361.48 44 C224.83 44, 88.18 44, 11 44 M361.48 44 C239.74 44, 118 44, 11 44 M11 44 C3.67 44, 0 40.33, 0 33 M11 44 C3.67 44, 0 40.33, 0 33 M0 33 C0 26.02, 0 19.04, 0 11 M0 33 C0 26.59, 0 20.18, 0 11 M0 11 C0 3.67, 3.67 0, 11 0 M0 11 C0 3.67, 3.67 0, 11 0" stroke="#e03131" stroke-width="2" fill="none"></path></g><g stroke-linecap="round" transform="translate(814.03125 198) rotate(0 192.546875 22)"><path d="M11 0 C148.84 0, 286.68 0, 374.09 0 M11 0 C135.77 0, 260.54 0, 374.09 0 M374.09 0 C381.43 0, 385.09 3.67, 385.09 11 M374.09 0 C381.43 0, 385.09 3.67, 385.09 11 M385.09 11 C385.09 15.65, 385.09 20.3, 385.09 33 M385.09 11 C385.09 16.3, 385.09 21.61, 385.09 33 M385.09 33 C385.09 40.33, 381.43 44, 374.09 44 M385.09 33 C385.09 40.33, 381.43 44, 374.09 44 M374.09 44 C279.93 44, 185.77 44, 11 44 M374.09 44 C267.19 44, 160.29 44, 11 44 M11 44 C3.67 44, 0 40.33, 0 33 M11 44 C3.67 44, 0 40.33, 0 33 M0 33 C0 26.43, 0 19.86, 0 11 M0 33 C0 25.62, 0 18.24, 0 11 M0 11 C0 3.67, 3.67 0, 11 0 M0 11 C0 3.67, 3.67 0, 11 0" stroke="#e03131" stroke-width="2" fill="none"></path></g><g stroke-linecap="round" transform="translate(1249.125 198) rotate(0 86.6328125 22)"><path d="M11 0 C45.78 0, 80.55 0, 162.27 0 M11 0 C45.47 0, 79.95 0, 162.27 0 M162.27 0 C169.6 0, 173.27 3.67, 173.27 11 M162.27 0 C169.6 0, 173.27 3.67, 173.27 11 M173.27 11 C173.27 19.39, 173.27 27.79, 173.27 33 M173.27 11 C173.27 15.77, 173.27 20.54, 173.27 33 M173.27 33 C173.27 40.33, 169.6 44, 162.27 44 M173.27 33 C173.27 40.33, 169.6 44, 162.27 44 M162.27 44 C128.41 44, 94.55 44, 11 44 M162.27 44 C127.9 44, 93.53 44, 11 44 M11 44 C3.67 44, 0 40.33, 0 33 M11 44 C3.67 44, 0 40.33, 0 33 M0 33 C0 27.35, 0 21.69, 0 11 M0 33 C0 27.74, 0 22.47, 0 11 M0 11 C0 3.67, 3.67 0, 11 0 M0 11 C0 3.67, 3.67 0, 11 0" stroke="#2f9e44" stroke-width="2" fill="none"></path></g><g stroke-linecap="round" transform="translate(447.015625 350.9843750000001) rotate(0 130.7734375 130.7734375)"><path d="M163.75 32.75 C182.98 52.12, 202.22 71.49, 228.8 98.25 M163.75 32.75 C185.94 55.09, 208.13 77.44, 228.8 98.25 M228.8 98.25 C261.55 131, 261.55 131, 228.8 163.75 M228.8 98.25 C261.55 131, 261.55 131, 228.8 163.75 M228.8 163.75 C203.63 188.92, 178.46 214.09, 163.75 228.8 M228.8 163.75 C204.2 188.34, 179.61 212.94, 163.75 228.8 M163.75 228.8 C131 261.55, 131 261.55, 98.25 228.8 M163.75 228.8 C131 261.55, 131 261.55, 98.25 228.8 M98.25 228.8 C81.48 212.14, 64.71 195.49, 32.75 163.75 M98.25 228.8 C77.97 208.66, 57.7 188.52, 32.75 163.75 M32.75 163.75 C0 131, 0 131, 32.75 98.25 M32.75 163.75 C0 131, 0 131, 32.75 98.25 M32.75 98.25 C54.05 76.95, 75.35 55.65, 98.25 32.75 M32.75 98.25 C53.53 77.47, 74.31 56.69, 98.25 32.75 M98.25 32.75 C131 0, 131 0, 163.75 32.75 M98.25 32.75 C131 0, 131 0, 163.75 32.75" stroke="#e03131" stroke-width="2" fill="none"></path></g><g stroke-linecap="round" transform="translate(1146 292) rotate(0 189.7578125 189.75781250000006)"><path d="M237.5 47.5 C263.55 73.68, 289.59 99.86, 332.02 142.5 M237.5 47.5 C273.63 83.81, 309.75 120.12, 332.02 142.5 M332.02 142.5 C379.52 190, 379.52 190, 332.02 237.5 M332.02 142.5 C379.52 190, 379.52 190, 332.02 237.5 M332.02 237.5 C305.83 263.68, 279.65 289.86, 237.5 332.02 M332.02 237.5 C300.47 269.04, 268.93 300.59, 237.5 332.02 M237.5 332.02 C190 379.52, 190 379.52, 142.5 332.02 M237.5 332.02 C190 379.52, 190 379.52, 142.5 332.02 M142.5 332.02 C109.54 299.23, 76.59 266.44, 47.5 237.5 M142.5 332.02 C121.62 311.24, 100.74 290.46, 47.5 237.5 M47.5 237.5 C0 190, 0 190, 47.5 142.5 M47.5 237.5 C0 190, 0 190, 47.5 142.5 M47.5 142.5 C78.5 111.5, 109.51 80.49, 142.5 47.5 M47.5 142.5 C83.29 106.71, 119.07 70.93, 142.5 47.5 M142.5 47.5 C190 0, 190 0, 237.5 47.5 M142.5 47.5 C190 0, 190 0, 237.5 47.5" stroke="#2f9e44" stroke-width="2" fill="none"></path></g><g stroke-linecap="round" transform="translate(471.65625 721.5156250000001) rotate(0 106.1328125 22)"><path d="M11 0 C60.13 0, 109.26 0, 201.27 0 M11 0 C57.18 0, 103.36 0, 201.27 0 M201.27 0 C208.6 0, 212.27 3.67, 212.27 11 M201.27 0 C208.6 0, 212.27 3.67, 212.27 11 M212.27 11 C212.27 16.79, 212.27 22.58, 212.27 33 M212.27 11 C212.27 19, 212.27 27, 212.27 33 M212.27 33 C212.27 40.33, 208.6 44, 201.27 44 M212.27 33 C212.27 40.33, 208.6 44, 201.27 44 M201.27 44 C140.15 44, 79.02 44, 11 44 M201.27 44 C146.99 44, 92.72 44, 11 44 M11 44 C3.67 44, 0 40.33, 0 33 M11 44 C3.67 44, 0 40.33, 0 33 M0 33 C0 26.64, 0 20.27, 0 11 M0 33 C0 25.26, 0 17.52, 0 11 M0 11 C0 3.67, 3.67 0, 11 0 M0 11 C0 3.67, 3.67 0, 11 0" stroke="#e03131" stroke-width="2" fill="none"></path></g><g stroke-linecap="round" transform="translate(1229.625 721.5156250000001) rotate(0 106.1328125 22)"><path d="M11 0 C56.3 0, 101.59 0, 201.27 0 M11 0 C56.88 0, 102.77 0, 201.27 0 M201.27 0 C208.6 0, 212.27 3.67, 212.27 11 M201.27 0 C208.6 0, 212.27 3.67, 212.27 11 M212.27 11 C212.27 18.36, 212.27 25.72, 212.27 33 M212.27 11 C212.27 18.75, 212.27 26.51, 212.27 33 M212.27 33 C212.27 40.33, 208.6 44, 201.27 44 M212.27 33 C212.27 40.33, 208.6 44, 201.27 44 M201.27 44 C134.03 44, 66.79 44, 11 44 M201.27 44 C141.06 44, 80.85 44, 11 44 M11 44 C3.67 44, 0 40.33, 0 33 M11 44 C3.67 44, 0 40.33, 0 33 M0 33 C0 27.19, 0 21.38, 0 11 M0 33 C0 27.76, 0 22.53, 0 11 M0 11 C0 3.67, 3.67 0, 11 0 M0 11 C0 3.67, 3.67 0, 11 0" stroke="#2f9e44" stroke-width="2" fill="none"></path></g><g stroke-linecap="round"><g transform="translate(771.508 54.5) rotate(0 0 24.5)"><path d="M0 0 C0 8.17, 0 40.83, 0 49 M0 0 C0 8.17, 0 40.83, 0 49" stroke="#1971c2" stroke-width="2" fill="none"></path></g><g transform="translate(771.508 54.5) rotate(0 0 24.5)"><path d="M-8.38 25.98 C-5.61 33.6, -2.83 41.22, 0 49 M-8.38 25.98 C-6.22 31.91, -4.06 37.84, 0 49" stroke="#1971c2" stroke-width="2" fill="none"></path></g><g transform="translate(771.508 54.5) rotate(0 0 24.5)"><path d="M8.38 25.98 C5.61 33.6, 2.83 41.22, 0 49 M8.38 25.98 C6.22 31.91, 4.06 37.84, 0 49" stroke="#1971c2" stroke-width="2" fill="none"></path></g></g><mask></mask><g stroke-linecap="round"><g transform="translate(727.531 129.96899999999994) rotate(0 -275.8789999999999 33.765499999999975)"><path d="M0 0 C-91.96 7.17, -459.8 31.78, -551.76 43.03 C-643.72 54.29, -551.76 63.45, -551.76 67.53 M0 0 C-91.96 7.17, -459.8 31.78, -551.76 43.03 C-643.72 54.29, -551.76 63.45, -551.76 67.53" stroke="#e03131" stroke-width="2" fill="none"></path></g><g transform="translate(727.531 129.96899999999994) rotate(0 -275.8789999999999 33.765499999999975)"><path d="M-563.98 68.4 C-559.21 68.06, -554.45 67.72, -551.76 67.53 M-563.98 68.4 C-559.73 68.1, -555.49 67.8, -551.76 67.53" stroke="#e03131" stroke-width="2" fill="none"></path></g><g transform="translate(727.531 129.96899999999994) rotate(0 -275.8789999999999 33.765499999999975)"><path d="M-561.68 60.34 C-557.81 63.14, -553.94 65.95, -551.76 67.53 M-561.68 60.34 C-558.23 62.84, -554.79 65.34, -551.76 67.53" stroke="#e03131" stroke-width="2" fill="none"></path></g></g><mask></mask><g stroke-linecap="round"><g transform="translate(727.531 137.16999999999996) rotate(0 -74.87099999999998 30.16500000000002)"><path d="M0 0 C-24.96 5.97, -124.78 25.77, -149.74 35.83 C-174.7 45.88, -149.74 56.25, -149.74 60.33 M0 0 C-24.96 5.97, -124.78 25.77, -149.74 35.83 C-174.7 45.88, -149.74 56.25, -149.74 60.33" stroke="#e03131" stroke-width="2" fill="none"></path></g><g transform="translate(727.531 137.16999999999996) rotate(0 -74.87099999999998 30.16500000000002)"><path d="M-160.58 54.63 C-157.11 56.45, -153.65 58.28, -149.74 60.33 M-160.58 54.63 C-156.49 56.78, -152.39 58.94, -149.74 60.33" stroke="#e03131" stroke-width="2" fill="none"></path></g><g transform="translate(727.531 137.16999999999996) rotate(0 -74.87099999999998 30.16500000000002)"><path d="M-154.38 48.99 C-152.9 52.62, -151.41 56.25, -149.74 60.33 M-154.38 48.99 C-152.63 53.28, -150.88 57.56, -149.74 60.33" stroke="#e03131" stroke-width="2" fill="none"></path></g></g><mask></mask><g stroke-linecap="round"><g transform="translate(815.4839999999999 135.293) rotate(0 95.54700000000003 31.103499999999997)"><path d="M0 0 C31.85 6.28, 159.24 27.34, 191.09 37.71 C222.94 48.07, 191.09 58.12, 191.09 62.21 M0 0 C31.85 6.28, 159.24 27.34, 191.09 37.71 C222.94 48.07, 191.09 58.12, 191.09 62.21" stroke="#e03131" stroke-width="2" fill="none"></path></g><g transform="translate(815.4839999999999 135.293) rotate(0 95.54700000000003 31.103499999999997)"><path d="M197.13 51.55 C194.75 55.76, 192.36 59.98, 191.09 62.21 M197.13 51.55 C195.57 54.3, 194.01 57.05, 191.09 62.21" stroke="#e03131" stroke-width="2" fill="none"></path></g><g transform="translate(815.4839999999999 135.293) rotate(0 95.54700000000003 31.103499999999997)"><path d="M202.57 57.93 C198.03 59.62, 193.5 61.31, 191.09 62.21 M202.57 57.93 C199.61 59.03, 196.64 60.14, 191.09 62.21" stroke="#e03131" stroke-width="2" fill="none"></path></g></g><mask></mask><g stroke-linecap="round"><g transform="translate(815.4839999999999 130.163) rotate(0 260.13699999999994 33.668499999999995)"><path d="M0 0 C86.71 7.14, 433.56 31.61, 520.27 42.84 C606.99 54.06, 520.27 63.25, 520.27 67.34 M0 0 C86.71 7.14, 433.56 31.61, 520.27 42.84 C606.99 54.06, 520.27 63.25, 520.27 67.34" stroke="#2f9e44" stroke-width="2" fill="none"></path></g><g transform="translate(815.4839999999999 130.163) rotate(0 260.13699999999994 33.668499999999995)"><path d="M530.07 59.99 C527.39 62, 524.72 64.01, 520.27 67.34 M530.07 59.99 C527.35 62.03, 524.62 64.08, 520.27 67.34" stroke="#2f9e44" stroke-width="2" fill="none"></path></g><g transform="translate(815.4839999999999 130.163) rotate(0 260.13699999999994 33.668499999999995)"><path d="M532.51 68 C529.16 67.82, 525.82 67.64, 520.27 67.34 M532.51 68 C529.1 67.82, 525.7 67.63, 520.27 67.34" stroke="#2f9e44" stroke-width="2" fill="none"></path></g></g><mask></mask><g stroke-linecap="round"><g transform="translate(176.2729999999999 242.5) rotate(0 158.13850000000002 96.86150000000004)"><path d="M0 0 C52.71 32.29, 263.56 161.44, 316.28 193.72 M0 0 C52.71 32.29, 263.56 161.44, 316.28 193.72" stroke="#e03131" stroke-width="2" fill="none"></path></g><g transform="translate(176.2729999999999 242.5) rotate(0 158.13850000000002 96.86150000000004)"><path d="M291.78 188.74 C296.96 189.8, 302.13 190.85, 316.28 193.72 M291.78 188.74 C297.68 189.94, 303.59 191.14, 316.28 193.72" stroke="#e03131" stroke-width="2" fill="none"></path></g><g transform="translate(176.2729999999999 242.5) rotate(0 158.13850000000002 96.86150000000004)"><path d="M300.71 174.16 C304 178.3, 307.29 182.43, 316.28 193.72 M300.71 174.16 C304.46 178.88, 308.22 183.59, 316.28 193.72" stroke="#e03131" stroke-width="2" fill="none"></path></g></g><mask></mask><g stroke-linecap="round"><g transform="translate(578.289 242.5) rotate(0 -0.25 54.24200000000002)"><path d="M0 0 C-0.08 18.08, -0.42 90.4, -0.5 108.48 M0 0 C-0.08 18.08, -0.42 90.4, -0.5 108.48" stroke="#e03131" stroke-width="2" fill="none"></path></g><g transform="translate(578.289 242.5) rotate(0 -0.25 54.24200000000002)"><path d="M-8.94 84.95 C-5.72 93.93, -2.5 102.91, -0.5 108.48 M-8.94 84.95 C-7.11 90.06, -5.28 95.16, -0.5 108.48" stroke="#e03131" stroke-width="2" fill="none"></path></g><g transform="translate(578.289 242.5) rotate(0 -0.25 54.24200000000002)"><path d="M8.16 85.03 C4.86 93.98, 1.55 102.93, -0.5 108.48 M8.16 85.03 C6.28 90.12, 4.4 95.2, -0.5 108.48" stroke="#e03131" stroke-width="2" fill="none"></path></g></g><mask></mask><g stroke-linecap="round"><g transform="translate(1006.078 242.5) rotate(0 -170.07799999999997 97.80850000000004)"><path d="M0 0 C-56.69 32.6, -283.46 163.01, -340.16 195.62 M0 0 C-56.69 32.6, -283.46 163.01, -340.16 195.62" stroke="#e03131" stroke-width="2" fill="none"></path></g><g transform="translate(1006.078 242.5) rotate(0 -170.07799999999997 97.80850000000004)"><path d="M-324.05 176.49 C-330.28 183.89, -336.52 191.29, -340.16 195.62 M-324.05 176.49 C-330.14 183.72, -336.23 190.95, -340.16 195.62" stroke="#e03131" stroke-width="2" fill="none"></path></g><g transform="translate(1006.078 242.5) rotate(0 -170.07799999999997 97.80850000000004)"><path d="M-315.53 191.32 C-325.06 192.98, -334.59 194.64, -340.16 195.62 M-315.53 191.32 C-324.84 192.94, -334.15 194.57, -340.16 195.62" stroke="#e03131" stroke-width="2" fill="none"></path></g></g><mask></mask><g stroke-linecap="round"><g transform="translate(1336.2580000000003 242.5) rotate(0 -0.25 24.75)"><path d="M0 0 C-0.08 8.25, -0.42 41.25, -0.5 49.5 M0 0 C-0.08 8.25, -0.42 41.25, -0.5 49.5" stroke="#2f9e44" stroke-width="2" fill="none"></path></g><g transform="translate(1336.2580000000003 242.5) rotate(0 -0.25 24.75)"><path d="M-8.73 26.16 C-6.45 32.62, -4.17 39.09, -0.5 49.5 M-8.73 26.16 C-5.98 33.95, -3.24 41.74, -0.5 49.5" stroke="#2f9e44" stroke-width="2" fill="none"></path></g><g transform="translate(1336.2580000000003 242.5) rotate(0 -0.25 24.75)"><path d="M8.2 26.33 C5.79 32.75, 3.38 39.17, -0.5 49.5 M8.2 26.33 C5.3 34.06, 2.39 41.8, -0.5 49.5" stroke="#2f9e44" stroke-width="2" fill="none"></path></g></g><mask></mask><g stroke-linecap="round"><g transform="translate(578.289 613.5310000000001) rotate(0 -0.25 53.742500000000064)"><path d="M0 0 C-0.08 13.83, -0.42 65.07, -0.5 82.99 C-0.58 100.9, -0.5 103.4, -0.5 107.49 M0 0 C-0.08 13.83, -0.42 65.07, -0.5 82.99 C-0.58 100.9, -0.5 103.4, -0.5 107.49" stroke="#e03131" stroke-width="2" fill="none"></path></g><g transform="translate(578.289 613.5310000000001) rotate(0 -0.25 53.742500000000064)"><path d="M-4.74 95.99 C-3.62 99.02, -2.51 102.04, -0.5 107.49 M-4.74 95.99 C-3.2 100.17, -1.66 104.35, -0.5 107.49" stroke="#e03131" stroke-width="2" fill="none"></path></g><g transform="translate(578.289 613.5310000000001) rotate(0 -0.25 53.742500000000064)"><path d="M3.64 95.96 C2.55 98.99, 1.46 102.02, -0.5 107.49 M3.64 95.96 C2.14 100.15, 0.63 104.34, -0.5 107.49" stroke="#e03131" stroke-width="2" fill="none"></path></g></g><mask></mask><g stroke-linecap="round"><g transform="translate(1336.2580000000003 672.516) rotate(0 -0.25 24.25)"><path d="M0 0 C-0.08 4, -0.42 15.92, -0.5 24 C-0.58 32.08, -0.5 44.42, -0.5 48.5 M0 0 C-0.08 4, -0.42 15.92, -0.5 24 C-0.58 32.08, -0.5 44.42, -0.5 48.5" stroke="#2f9e44" stroke-width="2" fill="none"></path></g><g transform="translate(1336.2580000000003 672.516) rotate(0 -0.25 24.25)"><path d="M-4.72 37 C-3.31 40.85, -1.9 44.69, -0.5 48.5 M-4.72 37 C-3.23 41.05, -1.75 45.11, -0.5 48.5" stroke="#2f9e44" stroke-width="2" fill="none"></path></g><g transform="translate(1336.2580000000003 672.516) rotate(0 -0.25 24.25)"><path d="M3.66 36.98 C2.27 40.83, 0.88 44.69, -0.5 48.5 M3.66 36.98 C2.19 41.04, 0.73 45.1, -0.5 48.5" stroke="#2f9e44" stroke-width="2" fill="none"></path></g></g><mask></mask><g transform="translate(748.6778335571289 19.5) rotate(0 22.829978942871094 12.5)"><text x="22.829978942871094" y="17.52" font-family="Virgil, Segoe UI Emoji" font-size="20px" fill="#1971c2" text-anchor="middle" style="white-space: pre;" direction="ltr" dominant-baseline="alphabetic">Auth</text></g><g transform="translate(742.9478454589844 113.5) rotate(0 28.559967041015625 12.5)"><text x="28.559967041015625" y="17.52" font-family="Virgil, Segoe UI Emoji" font-size="20px" fill="#1971c2" text-anchor="middle" style="white-space: pre;" direction="ltr" dominant-baseline="alphabetic">Signup</text></g><g transform="translate(41.933563232421875 207.5) rotate(0 133.83987426757812 12.5)"><text x="133.83987426757812" y="17.52" font-family="Virgil, Segoe UI Emoji" font-size="20px" fill="#e03131" text-anchor="middle" style="white-space: pre;" direction="ltr" dominant-baseline="alphabetic">should throw if email empty</text></g><g transform="translate(423.1592102050781 207.5) rotate(0 154.62985229492188 12.5)"><text x="154.62985229492188" y="17.52" font-family="Virgil, Segoe UI Emoji" font-size="20px" fill="#e03131" text-anchor="middle" style="white-space: pre;" direction="ltr" dominant-baseline="alphabetic">should throw if password empty</text></g><g transform="translate(847.8482666015625 207.5) rotate(0 158.7298583984375 12.5)"><text x="158.7298583984375" y="17.52" font-family="Virgil, Segoe UI Emoji" font-size="20px" fill="#e03131" text-anchor="middle" style="white-space: pre;" direction="ltr" dominant-baseline="alphabetic">should throw if no body provided</text></g><g transform="translate(1267.9378814697266 207.5) rotate(0 67.81993103027344 12.5)"><text x="67.81993103027344" y="17.52" font-family="Virgil, Segoe UI Emoji" font-size="20px" fill="#2f9e44" text-anchor="middle" style="white-space: pre;" direction="ltr" dominant-baseline="alphabetic">should sign up</text></g><g transform="translate(521.9823913574219 444.3710937500001) rotate(0 55.919952392578125 37.5)"><text x="55.919952392578125" y="17.52" font-family="Virgil, Segoe UI Emoji" font-size="20px" fill="#e03131" text-anchor="middle" style="white-space: pre;" direction="ltr" dominant-baseline="alphabetic">post </text><text x="55.919952392578125" y="42.519999999999996" font-family="Virgil, Segoe UI Emoji" font-size="20px" fill="#e03131" text-anchor="middle" style="white-space: pre;" direction="ltr" dominant-baseline="alphabetic">/auth/signu</text><text x="55.919952392578125" y="67.52" font-family="Virgil, Segoe UI Emoji" font-size="20px" fill="#e03131" text-anchor="middle" style="white-space: pre;" direction="ltr" dominant-baseline="alphabetic">p</text></g><g transform="translate(1248.478988647461 456.8789062500001) rotate(0 87.39991760253906 25)"><text x="87.39991760253906" y="17.52" font-family="Virgil, Segoe UI Emoji" font-size="20px" fill="#2f9e44" text-anchor="middle" style="white-space: pre;" direction="ltr" dominant-baseline="alphabetic">post /auth/signup</text><text x="87.39991760253906" y="42.519999999999996" font-family="Virgil, Segoe UI Emoji" font-size="20px" fill="#2f9e44" text-anchor="middle" style="white-space: pre;" direction="ltr" dominant-baseline="alphabetic">with body</text></g><g transform="translate(480.95914459228516 731.0156250000001) rotate(0 96.82991790771484 12.5)"><text x="96.82991790771484" y="17.52" font-family="Virgil, Segoe UI Emoji" font-size="20px" fill="#e03131" text-anchor="middle" style="white-space: pre;" direction="ltr" dominant-baseline="alphabetic">expect status 400</text></g><g transform="translate(1242.3778915405273 731.0156250000001) rotate(0 93.37992095947266 12.5)"><text x="93.37992095947266" y="17.52" font-family="Virgil, Segoe UI Emoji" font-size="20px" fill="#2f9e44" text-anchor="middle" style="white-space: pre;" direction="ltr" dominant-baseline="alphabetic">expect status 201</text></g></svg>